PathFileType	4	(X/Y/Z)	C:\Users\WrightLab\Desktop\Jo\P5V124.trc
DataRate	CameraRate	NumFrames	NumMarkers	Units	OrigDataRate	OrigDataStartFrame	OrigNumFrames
100.00	100.00	       14	19	mm	100.00	79	       624
Frame#	Time	Headset_Front			Headset_Back			Headset_Left			Headset_Right			Left_Shoulder			Right_Shoulder			Sternum			C7			Left Elbow			Right Elbow			Left Wrist			Right Wrist			Left ASIS			Right ASIS			S2			Left Knee			Right Knee			Left Ankle			Right Ankle			
		X1	Y1	Z1	X2	Y2	Z2	X3	Y3	Z3	X4	Y4	Z4	X5	Y5	Z5	X6	Y6	Z6	X7	Y7	Z7	X8	Y8	Z8	X9	Y9	Z9	X10	Y10	Z10	X11	Y11	Z11	X12	Y12	Z12	X13	Y13	Z13	X14	Y14	Z14	X15	Y15	Z15	X16	Y16	Z16	X17	Y17	Z17	X18	Y18	Z18	X19	Y19	Z19	

79	0.780													-197.64110	1519.29858	-1131.74219													-436.75894	1179.36658	-996.82343	172.54573	967.13049	-1153.93103	-345.83810	981.06317	-877.34271	9.73100	914.00684	-1057.60168	-237.42369	929.30530	-948.97687	-190.86749	978.85388	-1276.01135	46.60207	504.43640	-1111.39758	-294.10938	463.59177	-1018.33563				-293.64487	74.10607	-1158.91418	
80	0.790													-196.41182	1519.32605	-1128.95337													-435.13812	1179.16943	-993.11499	174.21855	967.52997	-1154.68408	-344.46222	980.67120	-873.48737	11.53019	913.60309	-1055.68958	-234.54181	928.88690	-947.21979	-189.19374	979.40930	-1273.86731	50.31737	505.70465	-1109.06213	-293.56955	463.31009	-1016.89532				-293.62793	74.15433	-1158.91968	
81	0.800													-194.69765	1519.24622	-1124.68176										106.52710	1202.48340	-1206.88770	-432.84586	1178.83643	-989.41779	176.32272	967.39386	-1155.37048	-343.68890	980.41583	-869.74579	13.23303	913.83356	-1054.29248	-232.76866	927.86560	-944.85736	-187.52943	979.52734	-1271.95544	53.87585	505.38385	-1105.82056	-291.93826	462.43393	-1016.62341	76.17634	102.62734	-1150.65393	-293.63315	74.18930	-1158.92590	
82	0.810													-193.13031	1518.92200	-1121.27051										108.27151	1202.72278	-1205.15063	-431.14288	1178.70862	-985.74585	178.58882	967.41492	-1156.11560	-341.62488	980.36176	-866.08734	15.12645	913.43134	-1052.08582	-229.54849	927.90967	-943.23199	-185.35953	979.68518	-1268.64893	57.92646	505.31494	-1103.61267	-291.09674	462.60974	-1015.49200	81.74129	102.77802	-1144.77051	-293.44629	74.47582	-1158.89502	
83	0.820													-191.34920	1518.69238	-1117.88220										110.67963	1202.73181	-1203.12891	-429.46130	1178.10706	-982.20026	180.77394	967.41376	-1156.90918	-338.97049	979.55042	-862.66425	17.40069	912.81445	-1049.75073	-227.44388	927.40259	-940.96881	-183.47501	979.55109	-1266.13257	63.04055	505.69006	-1102.07129	-290.60126	463.02338	-1014.47668	88.93382	100.80785	-1138.28015	-293.27582	74.76013	-1158.64441	
84	0.830													-189.26558	1518.73499	-1114.37939										111.85155	1204.22913	-1205.19690	-426.72894	1177.46228	-978.50873	183.52950	967.58435	-1156.25366	-337.10098	979.11737	-857.91211	20.66718	913.06525	-1047.88452	-225.39700	926.62115	-939.97229	-181.56596	979.81805	-1264.42578	67.96659	504.39331	-1100.28101	-289.29108	462.40894	-1013.55084	96.32652	101.23003	-1131.37976	-292.86090	75.58321	-1157.67200	
85	0.840													-187.15677	1518.25012	-1110.93481										114.16452	1204.04736	-1202.83936	-425.02957	1176.91479	-975.00970	185.86215	967.38190	-1156.57178	-335.39911	978.88947	-855.00226	22.91542	912.40723	-1045.21521	-221.26175	925.34009	-936.67371	-179.44940	979.69556	-1261.27283	73.36756	504.06281	-1098.60364	-287.95340	461.50229	-1012.41223	103.81182	99.35911	-1126.67249	-292.79846	75.62248	-1157.67004	
86	0.850													-184.87511	1517.68591	-1106.89575										117.29768	1203.14941	-1198.45020	-421.97122	1175.85571	-971.31720	188.92221	967.33813	-1156.25220	-332.95374	978.22107	-850.91833	26.37951	912.18439	-1043.48083	-220.06540	924.64423	-935.54376	-177.43428	979.36908	-1258.55383	79.46246	503.07004	-1096.97498	-286.69583	460.80466	-1010.90967	113.87701	100.45767	-1114.69373	-292.00565	75.31792	-1157.84753	
87	0.860													-182.36665	1517.54041	-1103.73865										118.69112	1204.69897	-1200.42432	-419.79379	1175.78491	-967.37158	191.10902	966.87695	-1156.24292	-329.64618	977.56360	-847.50537	29.39566	912.06445	-1041.15332	-215.94525	924.45142	-932.10852	-175.20166	979.35449	-1255.76038	85.55074	501.36539	-1094.42712	-285.35751	460.72250	-1009.89227	122.06053	99.11633	-1110.14502	-291.93112	75.31717	-1157.83777	
88	0.870													-179.61736	1517.19592	-1099.67065										121.69781	1203.55847	-1195.95703	-417.01547	1175.02844	-963.83423	195.39479	966.82831	-1155.38904	-327.25061	977.02441	-843.90234	32.89277	910.68811	-1038.47522	-212.63013	924.34613	-930.35938	-173.03609	979.06848	-1252.90979	91.98907	501.12018	-1093.10315	-284.04605	460.34778	-1006.33173	129.41032	98.59915	-1100.12366	-291.81070	75.32890	-1157.82385	
89	0.880													-176.93198	1516.46423	-1096.14368										124.76581	1202.48535	-1191.24646	-413.42117	1173.75134	-959.28607	198.40384	966.08783	-1155.02063	-324.05896	976.53345	-840.08441	36.31892	909.96039	-1036.46069	-210.32849	923.09125	-927.28943	-170.63330	979.06543	-1249.99561	98.37410	500.17892	-1090.74744	-282.17697	459.80945	-1005.17084	140.46660	99.91384	-1089.72217	-291.70770	75.35399	-1157.81433	
90	0.890													-174.04453	1515.86353	-1092.62952										128.14929	1202.80664	-1189.57568	-411.07538	1173.54443	-955.57269	201.80193	966.04498	-1154.60608	-321.28812	975.65753	-836.23224	40.47722	910.18311	-1033.96924	-206.96613	922.71320	-923.79608	-168.29604	978.77618	-1247.18909	104.14726	500.34274	-1087.89697	-280.05948	459.06137	-1003.05927	145.75999	98.50209	-1086.14697	-290.96536	75.66698	-1158.21399	
91	0.900													-170.97130	1515.95154	-1089.66528										131.69849	1201.95007	-1185.34106	-407.33728	1172.87573	-952.16724	205.22508	965.67517	-1153.77869	-318.40472	974.84607	-832.75006	43.82735	909.32001	-1031.33191	-204.38152	921.48889	-922.22675	-165.60121	978.42346	-1243.65002	109.56761	500.46851	-1086.96582	-276.63931	458.18637	-1000.65991	156.17340	99.23261	-1075.91797	-290.58972	76.03097	-1157.92346	
92	0.910													-167.88791	1515.09424	-1086.07922										134.21907	1202.55176	-1184.96289	-403.82138	1172.52820	-949.15540	209.06683	965.10016	-1152.25500	-314.53986	974.62036	-828.44934	48.18930	908.42096	-1028.81226	-200.89479	921.20990	-918.45020	-162.82417	978.10614	-1240.02832	115.14903	500.68173	-1085.36938	-274.24588	458.48428	-997.25812	162.90630	100.32329	-1068.80640	-289.84555	76.22102	-1158.38062	
